<?xml version="1.0" encoding="UTF-8" standalone="no"?>
<svg
   version="1.1"
   id="svg1"
   width="4096"
   height="4096"
   viewBox="0 0 4096 4096"
   xmlns="http://www.w3.org/2000/svg"
   xmlns:svg="http://www.w3.org/2000/svg">
  <defs
     id="defs1" />
  <g
     id="layer1">
    <path
       style="fill:#dc2626;fill-opacity:1"
       d="m 491.51416,2027.4849 0.0877,-0.6429 0.40913,-0.7014 1.31507,-1.2274 1.81187,-1.4319 2.42557,-1.7827 4.99726,-3.4191 5.17261,-3.7115 4.73424,-3.1853 6.13699,-3.916 4.32511,-2.7178 6.37078,-3.5361 6.19543,-3.4776 8.97169,-4.7051 6.13699,-3.536 20.06095,-10.432 27.44221,-13.4731 28.5994,-14.1344 16.69676,-7.8525 1.85392,-1.0669 0.76172,-0.6172 0.55859,-0.4492 0.55079,-0.4805 0.38281,-0.4063 0.17187,-0.2109 0.0859,-0.1289 0.10547,-0.1797 0.0898,-0.2031 0.0195,-0.066 0.0117,-0.1133 0.0117,-0.1172 -0.0234,-0.1094 -0.0234,-0.082 -0.0508,-0.094 -0.0937,-0.1523 -0.12891,-0.1172 -0.0742,-0.066 -0.10937,-0.082 -0.11719,-0.086 -0.11719,-0.078 -0.17969,-0.094 -0.36718,-0.1758 -0.69141,-0.2578 -0.51953,-0.1485 -1.71485,-0.3867 -1.43359,-0.2148 -1.43359,-0.1602 -1.10157,-0.1172 -28.53431,-5.6784 -40.30509,-11.137 -33.58757,-12.1976 -38.18376,-16.2634 -60.81119,-30.9359 -54.27044,-33.4108 -29.52171,-19.4455 -42.95674,-33.4108 -15.37957,-11.6672 -2.48868,-1.7167 -1.03906,-0.7031 -0.625,-0.5039 -0.35156,-0.4805 -0.0937,-0.1796 -0.11719,-0.3164 -0.0469,-0.3907 0.0586,-0.4101 0.18359,-0.4258 0.28516,-0.3945 0.35547,-0.3633 0.38281,-0.2617 0.50781,-0.2383 0.4961,-0.1563 0.76562,-0.1367 1.03516,-0.094 0.85547,-0.024 4.44921,0.1445 6.70313,0.5938 3.92187,0.6094 1.5625,0.3593 1.45313,0.4063 93.46875,19.3125 88.375,20.25 169.75,42.75 62.25,16.625 38.57069,9.6003 33.58757,7.513 5.17072,1.1049 3.0273,0.4861 1.28163,0.1326 0.92808,0.066 0.7955,0.044 h 0.97227 l 0.7513,-0.044 1.08276,-0.088 1.23743,-0.088 1.01647,-0.1547 1.10485,-0.1989 0.68501,-0.1546 1.03857,-0.1105 1.32582,-0.2873 1.78987,-0.5524 2.78423,-1.4142 3.40295,-1.5026 3.29247,-1.4143 L 889.25,1849 l 62,-25.5 86.25,-31.5 82,-29.25 83.75,-28.75 63.25,-19.75 124,-34.75 102.5,-25.75 54.75,-10.25 61.25,-10.5 50.25,-8 76.75,-8.75 57.5,-3.5 61.5,-1 36.75,0.75 62.25,4.75 43.5,4.5 9.25,1.5 24.25,4.75 42.5,9.75 13.1721,3.0913 18.7383,5.3033 18.1196,5.8336 21.39,7.955 16.7938,6.2755 13.7886,5.3917 12.9047,5.8337 13.0815,6.0104 18.5615,8.7504 16.4403,8.2201 26.0745,13.2583 60.6344,33.234 88.3884,53.033 66.468,41.7193 81.6708,46.6691 25.4559,12.3743 2.055,0.8839 1.127,0.3536 0.7513,0.1767 1.1269,0.3094 1.3921,0.4198 1.4584,0.5525 0.5967,0.2209 0.9943,0.4862 1.1712,0.6629 1.3037,0.7734 0.7513,0.5524 0.1131,0.1045 0.074,0.078 0.207,0.2188 0.1758,0.2227 0.1523,0.2578 0.1328,0.3515 0.035,0.2969 -0.027,0.3008 -0.082,0.2344 -0.1641,0.2851 -0.1875,0.2344 -0.2304,0.2109 -0.168,0.1407 -0.293,0.2031 -0.2539,0.1562 -0.2968,0.074 -0.5157,0.067 -0.6367,0.047 -0.5742,0.035 -137.026,0.1937 -0.9623,-0.1039 -0.3906,-0.086 -0.3125,-0.094 -0.3906,-0.1015 -0.4063,-0.094 -0.3047,-0.086 -1.2187,-0.2891 -1.3516,-0.3672 -1.1016,-0.3281 -1.125,-0.3828 -1.7304,-0.6875 -2.211,-0.9961 -99.2148,-62.4414 -47.5,-31.25 -15.375,-10.125 -58.0708,-36.0223 -43.6638,-23.1577 -40.4819,-18.5616 -32.1733,-14.3189 -51.442,-15.9099 -55.6847,-12.1976 -27.9307,-4.7729 -33.4108,-4.4195 -44.371,-3.3587 -37.8302,-0.7071 -33.0572,-0.1768 -45.0781,0.1768 -117.3797,7.4246 -42.4264,4.773 -45.0781,6.8943 -40.1283,5.3033 -36.0624,6.8943 -91.9239,16.7937 -64.7003,12.9047 -46.1387,10.9602 -95.2826,23.3345 -71.0643,21.0364 -104.2982,33.2341 -60.28086,21.2132 -91.57032,34.4714 -55.15433,21.7436 -43.84062,18.5615 -48.61359,19.0919 -99.52528,39.4212 -59.04342,23.3345 -35.29418,15.8483 -21.5625,9.4375 -8.375,3.75 -4.57813,2 -1.29687,0.5312 -1.78906,0.5235 -0.95272,0.1989 -0.41985,0.061 -0.50271,0.05 -0.43089,-0.01 -0.41984,-0.016 -0.50271,-0.105 -0.44194,-0.1602 -0.48614,-0.3812 -0.3867,-0.4198 z"
       id="path1" />
    <path
       style="fill:#dc2626;fill-opacity:1"
       d="m 3356.437,2037.1912 0.2983,-0.1768 0.5304,-0.1657 0.7955,-0.055 1.0551,0.2707 1.6131,0.812 1.5744,1.011 54.1962,29.7378 144.5,84.875 61,37.5 54,37.5 23.5,22 7.625,8.625 18.125,29 6.125,17.875 4.5,35.375 -0.5,48.625 -3.25,35.75 -0.125,24.625 4.625,22 2.875,5.625 4.6304,6.0661 6.2756,6.364 7.2036,7.2036 8.7505,7.3805 8.6711,6.392 7.625,6.1875 3.4688,2.25 0.581,0.2296 0.4419,0.105 0.6684,0.2707 0.4917,0.2762 0.6905,0.5579 0.3204,0.3757 0.2873,0.4972 0.1105,0.4088 0.017,0.3259 -0.05,0.79 -0.1271,0.4806 -0.2873,0.348 -0.4695,0.2597 -1.022,0.2209 -3.3588,0.232 -5.8778,0.072 -7.8831,-0.028 -10.1039,-0.094 -8.6234,-0.099 -6.48,-0.061 -15.2415,-0.1768 -48.553,-1.0227 -35.625,-1.9688 -39.3437,-1.6875 -38.875,-2.4687 -32.4688,-2.2813 -18.6875,-2.6875 -3.0312,-0.6875 -0.4609,-0.1914 -0.2969,-0.1406 -0.2539,-0.1797 -0.1719,-0.1562 -0.1055,-0.1445 -0.1015,-0.2266 -0.016,-0.3242 0.062,-0.1875 0.1289,-0.2071 0.2226,-0.2148 0.3477,-0.2227 0.4023,-0.1718 0.7735,-0.2578 1.1132,-0.2696 1.1953,-0.2304 0.5391,-0.086 14.8711,-1.9609 5.7031,-0.75 19.9531,-1.625 70.3438,-5.1719 26.25,-3.5625 1.5287,-0.2818 6.2755,-2.0329 c 0,0 8.9936,-4.3531 8.861,-4.3531 -0.1326,0 4.3089,-3.1599 4.3089,-3.1599 l 3.0884,-3.2348 2.5625,-3.4375 2.75,-5.625 2.0312,-7 0.5,-5.9375 0.3125,-15.9688 0.031,-55.0937 -0.625,-11.75 -4.25,-21.25 -3.625,-12.875 -8,-18.875 -2.25,-5.125 -2.6906,-3.7543 -14.4073,-16.7496 -13.0372,-13.2141 -19.4897,-18.5615 -18.1196,-15.3354 -36.5486,-30.4056 -109.082,-95.4795 -74.75,-66.5 -22.4001,-19.2166 -0.5335,-0.76 -0.3633,-0.6601 -0.1601,-0.4375 -0.066,-0.5235 0.023,-0.2187 0.09,-0.3047 0.1446,-0.2422 z"
       id="path7" />
    <path
       style="fill:#dc2626;fill-opacity:1"
       d="m 372.86624,2228.3144 1.45841,7.1153 0.61872,4.1542 -0.22097,1.7236 -0.13258,0.4088 -0.28727,0.3978 -0.57452,0.3867 -1.02751,0.243 -1.65729,0.022 -0.86178,-0.033 -1.76777,-0.3757 -1.31478,-0.5524 -0.61871,-0.3535 -0.92808,-0.7955 c 0,0 -1.138,-1.7015 -1.1601,-1.7789 -0.0221,-0.077 -0.54138,-1.8672 -0.54138,-1.8672 l -18.25219,-58.7672 -5.83363,-22.0087 -0.85856,-6.2337 0.28125,-4.2188 1.21875,-4.375 3.59375,-4.125 8.03125,-5.2812 14.8125,-4.0313 9.60222,-2.3615 10.25305,-1.1933 16.30765,-0.3977 16.92637,0.088 46.93421,1.9887 87.32769,4.0659 96.52007,3.0052 15.6678,0.2262 0.20703,0.082 0.14844,0.07 0.23047,0.207 0.15625,0.2578 0.0703,0.3906 -0.0351,0.3555 -0.22266,0.625 -0.32422,0.5899 -0.75,1.0507 -1.13281,1.25 -1.6836,1.4414 -0.80468,0.5118 -17.61719,7.6523 -20.8125,8.3125 -22,8.9375 -23.3125,6.5 -12.06328,1.6235 -12.065,0.8839 -16.92637,0.1768 -18.56156,-0.8839 -55.75879,-8.7378 -46.25,-8.3125 -14.15625,-2.8438 -6.3125,-0.5 -4.46875,-0.062 -4.9375,0.3125 -3.90625,0.875 -3.01563,1.2891 -1.53125,0.8203 -1.76562,1.125 -1.73438,1.3985 -2.84354,3.1678 -1.61309,2.4528 -1.83405,5.3033 -0.72921,4.1984 -0.86178,6.9827 -0.0663,6.386 0.39775,5.3475 1.14905,7.9329 1.94454,15.1807 1.74567,10.2751 z"
       id="path8" />
    <path
       style="fill:#dc2626;fill-opacity:1"
       d="m 1737.5195,1726.6094 v 0.1562 l -0.07,0.2344 -0.2656,0.3633 -0.6094,0.3789 -1.4297,0.4336 -0.6601,0.1523 -4.0117,0.6055 -5.3985,0.7305 -1.664,0.3515 -46.7716,10.5277 -63.3303,13.877 -75.3952,18.8267 -88.8745,23.8649 -153.0386,46.2631 -94.75,33.375 -28.75,12.5 -9.3756,4.9123 -3.9994,2.4314 -1.3125,1.0547 -0.6953,0.7266 -0.6172,0.8203 -0.3828,0.6328 -0.1641,0.7031 -0.049,0.8237 0.1105,0.79 0.2376,0.7181 0.5634,1.0883 0.5746,0.7789 0.8562,0.9944 2.7069,2.2484 4.6717,2.4645 21.0625,6 29.9375,4.8125 38.9375,5.1875 90.25,7.25 169.5173,8.0277 319.6123,5.6569 379.7163,1.4142 554.3717,9.1924 229.1026,11.3137 105.359,8.4853 44.9012,6.7175 33.2341,7.7782 44.7245,13.9653 25.6326,10.7834 39.2444,21.9203 25.9862,18.9151 19.9757,17.5893 19.7106,20.0641 16.7054,22.1855 12.9047,22.4507 10.0763,21.4783 6.0104,13.2583 0.8452,1.9832 0.2486,0.7844 0.044,0.5028 -0.066,0.5137 -0.116,0.3701 -0.2928,0.4972 -0.3535,0.3536 -0.3149,0.1602 -0.3977,0.05 -0.4254,-0.072 -0.7016,-0.2762 -0.8231,-0.5138 -1.1159,-0.8507 -1.2209,-1.0883 -16.064,-15.7666 -12.0625,-10.7187 -16.125,-11.0938 -19.4062,-12.6562 -33,-19.8125 -34,-16 -49.5,-17.5 -35,-9.25 -61.75,-10.75 -38.25,-2.75 -31,-1.75 -35.75,0.75 -27,0.75 -36.5,3.75 -41.5,7.75 -44,12.5 -37,15 -40.25,22.75 -27.25,21.25 -28.75,28 -24.75,24.75 -12.5,13.25 -0.335,0.3299 -0.4585,0.3977 -0.4143,0.2321 -0.2044,0.022 -0.1768,-0.083 c 0,0 -0.3701,-0.2376 -0.3812,-0.2597 -0.011,-0.022 -0.2265,-0.2872 -0.2265,-0.3093 0,-0.022 -0.232,-0.7403 -0.232,-0.7403 l -0.083,-1.0109 0.017,-1.1546 0.099,-1.6904 0.4695,-4.1819 1.3645,-5.4469 9.5615,-19.7924 16,-20.75 20.875,-21.375 19,-14.5 38.7678,-26.3009 48.0833,-28.8146 38.3605,-19.0919 14.1422,-6.7175 1.3259,-0.8251 0.5273,-0.4219 0.4375,-0.3867 0.2461,-0.2734 0.1992,-0.2266 0.086,-0.1601 0.086,-0.1797 0.051,-0.1328 -0.055,-0.125 -0.1719,-0.1563 -0.3046,-0.1797 -0.6211,-0.2578 -0.9141,-0.2773 -12.1211,-2.4102 -55.75,-2.5 -95,-2.25 -129.25,-1.5 -91.75,-1.25 -342.5,-1.75 -256,-3 -180.75,-4 -98.25,-4.25 -102,-4.75 -183,-12 -66.25,-6.5 -81.5,-12.25 -48.25,-11 -33,-11 -13.25,-7.625 -11.5,-9.4375 -6.5,-7.25 c 0,0 -0.625,-1.3125 -0.9375,-1.625 -0.3125,-0.3125 -1.4375,-2.9375 -1.4375,-2.9375 l -1.6875,-6.0625 -0.25,-4.125 v -8.75 l 2.0625,-5.8125 3.75,-4.875 6.625,-7.4375 15.125,-11.875 14.1875,-7.9375 14.6875,-6.875 33.375,-13.0625 42.1875,-14.625 L 1328,1795.75 l 142.75,-32 99,-17 101.5,-14.75 53.5,-6.5 5.625,-0.5 4.1094,0.047 0.4961,0.035 0.3125,0.039 0.6836,0.1484 0.6875,0.211 0.3945,0.2343 0.2539,0.2461 0.1211,0.2344 0.07,0.2266 z"
       id="path2" />
    <path
       style="fill:#b0b0b0;fill-opacity:1"
       d="m 373.70312,2242.5156 6.14063,15.2656 3.53125,9.7813 7.56666,19.5744 10.69499,23.7764 7.77818,13.7886 15.55634,21.2132 11.49049,15.6448 21.2132,21.8319 22.8042,18.208 1.83406,1.4915 0.54137,0.6961 0.23202,0.4309 0.12154,0.3094 0.0111,0.2209 -0.0111,0.2652 -0.0773,0.2431 -0.0884,0.1657 -0.16573,0.066 -0.23202,0.033 -0.26516,-0.055 -0.27622,-0.1105 -0.39774,-0.2099 -3.13779,-2.4197 -15.88016,-10.7892 -16.8125,-15.8125 -19.5625,-20.6875 -23.79197,-33.3872 -14.05374,-26.2514 -16.97057,-41.896 -2.49622,-7.0904 -0.48438,-2.9844 0.10938,-1.375 0.0156,-0.047 0.67579,0.1406 0.85546,0.1875 c 0,0 1.26172,0.023 1.28125,0.023 0.0195,0 1.23047,-0.012 1.23047,-0.012 l 0.81641,-0.1719 z"
       id="path10" />
    <path
       style="fill:#b0a6a8;fill-opacity:1"
       d="m 437.50575,2079.695 83.45517,-4.8669 121.09204,-10.4299 156.09382,-10.6066 99.17172,-4.4194 100.05561,-0.5303 55.50789,2.1213 32.8805,3.7123 39.0676,7.0711 39.2444,11.844 30.5824,11.3137 43.4871,23.6881 35.0018,23.6881 33.3542,28.2195 36.375,40.625 17.375,23.375 21,32.125 20.125,38.75 10.25,23.5 6.0937,17.6875 1.8438,6.875 0.3125,1.75 0.1172,0.3047 0.1797,0.25 0.1718,0.023 0.1641,-0.2109 0.25,-0.4531 0.2422,-0.75 c 0,0 0.875,-4.3516 0.875,-4.9141 0,-0.5625 0.3125,-6.9375 0.3125,-6.9375 l -5.9375,-32.125 -10.8125,-41.75 -12.875,-31.4375 c 0,0 -21.4825,-40.1062 -22.1896,-43.2882 -0.7071,-3.182 -36.7695,-49.851 -36.7695,-51.2653 0,-1.4142 -49.851,-49.1439 -49.851,-49.1439 l -42.0729,-29.6985 -54.0937,-25.4558 -51.2652,-18.0312 -47.3762,-10.9602 -37.4766,-6.3639 -70.00359,-1.7678 -48.96715,0.5303 -91.21677,4.4194 -67.88225,7.2479 -108.36411,14.6724 -94.39876,20.5061 -79.51017,20.5362 c 0,0 -34.375,10.375 -36.125,10.625 -1.75,0.25 -10.875,3.2812 -10.875,3.2812 l -4.84375,2.625 -0.79688,0.5313 -1.21875,1.1562 -0.51562,0.9688 v 0.4844 l 0.15625,0.2968 z"
       id="path11" />
    <path
       style="fill:#b0a6a8;fill-opacity:1"
       d="m 1308.8436,2492.1426 0.3204,-0.3204 0.9833,-2.6627 1.4032,-5.6569 1.5247,-8.1759 4.0498,-33.6392 1.6875,-53.8125 -1.6875,-29.875 -11.875,-58.6875 c 0,0 -9.125,-22.3125 -9.625,-24.4375 -0.5,-2.125 -20.75,-37 -20.75,-37 l -25.625,-32.5 -27.5,-25.375 -20.375,-14.625 -27.875,-15.125 -23.125,-9.75 -25.75,-8.5 -32.25,-8 -47.25,-6.125 -46.25,-0.625 -31.75,3.875 -20,3.5 -24.625,5.625 -21.875,6.625 -27.125,11.625 -28.59579,15.8213 -9.72271,7.513 -15.73313,15.9099 -10.16466,11.6231 -5.52427,7.0268 -3.31457,7.7782 c 0,0 -0.30425,1.2339 -0.273,1.2339 0.0312,0 -0.17187,1.3516 -0.17187,1.3516 l -0.0703,0.8906 0.0312,0.4766 0.0234,0.3203 0.0703,0.3281 0.14843,0.375 0.10938,0.094 0.0781,-0.01 0.0937,0.039 0.10938,-0.062 0.10156,-0.086 0.0937,-0.1875 0.14063,-0.3203 0.27343,-1.0156 0.41407,-1.2344 1.625,-2.7031 8.53906,-9.1641 9.1875,-10.2188 16.28125,-13.3437 27.5,-15.4375 32.625,-12.75 44.25,-8 39.875,-3.25 37.62501,2.5 23.75,2.25 31.375,5.75 31.375,10.5 46,20.375 29.875,18.125 23.875,18.5 20.875,19.375 28.625,36 17.75,30.5 14.75,35 9.625,34 8.25,51 2.0137,30.7604 0.2651,21.0364 0.1989,9.4355 0.1878,3.7454 0.1105,0.9392 0.3149,0.5634 0.2486,0.21 z"
       id="path12" />
    <path
       style="fill:#b0a6a8;fill-opacity:1"
       d="m 1491.8848,2057.1946 1.9004,-0.3315 5.3696,-0.2872 9.3691,0.2209 76.6551,5.0457 77.6838,6.0858 73.2089,5.3698 36.873,2.9982 8.0995,1.1187 2.215,0.4028 0.7048,0.1901 0.1902,0.09 0.1902,0.1902 0.056,0.1454 -0.022,0.2126 -0.1678,0.1566 -0.414,0.1231 -1.1634,0.3244 -1.8124,0.2685 -39.3008,0.1924 -23.7316,-0.443 -64.2336,-0.7594 -34.2368,1.8986 -17.2133,1.1391 -10.8849,2.0251 -11.2646,3.4806 -7.2144,2.9744 -4.8096,3.354 -3.354,3.2275 -1.7087,2.9111 -1.6454,4.3666 -0.6328,4.4299 v 4.4932 l 1.2656,8.3535 3.544,12.9733 6.1385,13.0998 9.556,19.8713 12.4037,20.6307 15.7577,26.7692 7.1512,11.2013 1.5956,3.3163 0.3915,1.4879 v 1.1411 l -0.123,0.7384 -0.1343,0.4363 -0.1118,0.1678 -0.3133,0.1006 -0.2349,-0.1118 -0.4251,-0.3916 -2.2151,-2.3157 -22.4974,-27.968 -28.8629,-37.8574 -16.8256,-24.7908 -26.6255,-37.0072 -28.7286,-41.8401 -0.5189,-1.0085 -0.2734,-0.6797 c 0,0 -0.098,-0.5859 -0.09,-0.6055 0.01,-0.019 0.027,-0.2343 0.043,-0.2734 0.016,-0.039 0.2266,-0.3867 0.2266,-0.3867 l 0.2422,-0.2344 0.3906,-0.2305 z"
       id="path13" />
    <path
       style="fill:#b0a6a8;fill-opacity:1"
       d="m 1685.1328,2347.3086 0.5039,0.1445 1.3164,0.5703 2.5742,1.5039 13.6602,9.4727 12.5937,6.5 23.0313,10.1875 35.4375,11.6875 27.9375,6.5 67.6875,11.375 60.625,4.625 144.375,6.25 145.375,6.125 254.5,10.5 100.25,4.5 14.6018,1.3403 9.8111,1.7678 11.3579,3.3145 10.5624,4.0217 13.2141,6.7175 19.8874,10.9602 44.3267,22.8484 2.8011,1.0608 1.9375,0.8438 1.6875,1 0.6875,1.0625 0.1453,0.397 0.1436,0.8729 -0.1104,0.5856 -0.1658,0.3867 -0.6408,0.2872 -2.7179,0.3315 -2.2208,0.077 -6.0325,-0.1989 -20.6507,-1.4268 -94.4375,-5.0625 L 2148.5,2465.5 l -144,-8.375 -103.0899,-9.3865 -26.5165,-4.1542 -35.5321,-7.955 -26.0746,-8.3085 c 0,0 -25.279,-9.0156 -25.6326,-9.0156 -0.3535,0 -37.3882,-17.2357 -37.3882,-17.2357 l -38.449,-25.6327 -21.1248,-17.4125 c 0,0 -3.3954,-3.4774 -3.4892,-3.7118 -0.094,-0.2344 -2.375,-4.0625 -2.375,-4.125 0,-0.062 -0.5781,-1.9219 -0.5781,-1.9219 0,0 0.01,-0.2539 0.02,-0.289 0.012,-0.035 0.062,-0.3086 0.062,-0.3086 l 0.1875,-0.2266 0.2071,-0.1172 0.2187,-0.039 z"
       id="path14" />
    <path
       style="fill:#b0a6a8;fill-opacity:1"
       d="m 2847.2317,2201.5107 c 0,0 4.7067,-4.1985 4.7509,-4.3311 0.044,-0.1325 8.1096,-6.4744 8.1096,-6.4744 l 18.1859,-12.5512 48.7904,-21.6551 51.442,-11.9324 39.6864,-3.0936 61.6951,3.2704 20.5945,3.4471 28.461,6.4523 30.4056,10.3415 33.9411,16.7054 25.8978,15.4679 34.9134,27.6656 23.3345,25.5442 20.0642,28.903 16.0867,30.494 11.2253,29.3449 10.3414,34.7366 5.922,34.2063 3.0936,28.4611 0.2652,17.766 0.5303,20.0642 c 0,0 0.031,1.0863 0.031,1.1175 0,0.031 0.1094,0.8672 0.1094,0.8672 l 0.414,0.5156 0.2813,0.211 0.6562,0.2265 0.7735,0.01 0.5547,-0.1407 c 0,0 0.6328,-0.3828 0.6328,-0.414 0,-0.031 0.5078,-0.7969 0.5078,-0.7969 l 0.3984,-1.1094 0.336,-1.8281 0.5546,-6.3125 0.3282,-6.5078 c 0,0 2.6418,-44.7029 2.7302,-45.4984 0.088,-0.7955 0.3536,-42.2497 0.3536,-42.6032 0,-0.3536 -3.2704,-28.1075 -3.2704,-28.1075 0,0 -4.2426,-20.2409 -4.2426,-20.7713 0,-0.5303 -6.364,-23.9532 -6.364,-23.9532 0,0 -8.3085,-22.8042 -8.3085,-23.5113 0,-0.7071 -11.7556,-24.7488 -11.7556,-24.7488 l -22.1855,-34.5598 -24.6604,-27.4888 -18.8267,-14.4957 -33.0572,-21.2132 -23.1578,-11.3137 -33.6759,-12.286 -31.2895,-7.3362 -28.4611,-4.6846 -42.2496,-1.149 -34.7366,0.7071 -38.3606,4.8613 -31.0243,7.7782 -24.0416,8.4853 -18.0312,7.8666 -24.572,13.5234 -20.4177,14.3189 -8.6841,7.3141 -6.7838,6.4303 -5.3033,5.7894 -4.3311,6.3419 -1.1711,1.9224 -0.3536,0.8618 -0.022,0.4199 0.2652,0.3093 0.6629,-0.1326 0.7734,-0.5082 z"
       id="path15" />
  </g>
</svg>
