<svg xmlns="http://www.w3.org/2000/svg" width="96" height="96" fill="none" viewBox="0 0 512 512"><path fill="#1E1D51" d="M447.16 255.998c0 105.575-85.585 191.159-191.16 191.159S64.84 361.572 64.84 255.998c0-105.575 85.585-191.16 191.16-191.16s191.16 85.585 191.16 191.16"></path><path fill="#fff" d="M255.256 121.827c-16.326.307-31.989 3.212-46.55 8.295v104.942h46.55zm-84.672 31.274c-24.275 20.603-41.394 49.019-47.214 81.212h47.214zm36.475 119.195v109.71c14.944 5.074 31.017 7.975 47.772 8.282V272.296zm-83.842.298c4.839 34.284 22.32 64.609 47.666 86.287v-86.287z"></path><path fill="#2F7FBE" d="M258.643 123.178c72.13 1.41 130.18 60.355 130.18 132.822s-58.051 131.38-130.18 132.789z"></path><path fill="#D50D16" d="M205.238 131.788v106.25h49.291v31.365h-49.291v111.083a135.8 135.8 0 0 1-31.584-18.355v-92.728h-51.351c-.429-4.36-.651-8.781-.651-13.253 0-6.143.417-12.187 1.22-18.112h50.782v-87.889a135.8 135.8 0 0 1 31.584-18.361"></path><path fill="#9D0D16" d="M337.961 167.908h-45.693v6.376h45.693z"></path><path fill="#F8E45E" d="M256.558 55.153c-69.54-.11-137.249 35.919-174.49 100.425C26.635 251.589 59.57 374.499 155.58 429.93s218.921 22.496 274.353-73.514c55.431-96.01 22.495-218.921-73.515-274.352-31.504-18.188-65.9-26.857-99.861-26.911M256 64.836c105.521 0 191.162 85.641 191.162 191.161S361.521 447.159 256 447.159c-105.52 0-191.161-85.642-191.161-191.162S150.48 64.837 256 64.837m-11.51 6.695v39.623h12.074v-13.35l9.75 13.35 15.887 2.324-13.768-17.792c3.021-.629 8.687-3.836 8.687-10.593 0-10.117-9.11-13.35-14.83-13.35zm15.256 8.687c3.283 0 5.612 2.225 5.718 4.662s-1.579 5.08-5.293 5.08h-3.819l-.206-9.53zm56.917 2.25q-.323 0-.644.007c-10.417.213-19.224 6.529-21.333 16.844-2.099 10.273 7.231 22.429 18.637 25.018 12.374 2.808 23.922-3.068 26.526-16.405 2.229-11.42-6.165-22.635-18.63-25.012a25 25 0 0 0-4.556-.451M170.551 92.93l-10.805 5.719 5.08 44.703 11.443-8.474-1.481-6.774 12.5-7.419 5.718 4.238 13.138-5.293zm146.391.492c.735.002 1.48.07 2.232.212 6.014 1.147 9.832 6.347 8.78 11.862s-6.578 9.269-12.592 8.122c-6.015-1.146-8.982-6.971-7.93-12.486.919-4.825 4.369-7.724 9.51-7.71m-145.966 13.701 9.105 6.994-6.568 3.812zm201.482 5.725-33.898 23.517 9.956 7.837 16.318-12.712-8.269 20.549 4.238 4.025 20.768-8.475-12.5 16.95 7.625 10.805 23.942-34.323-7.631-9.106-19.493 7.837 7.844-19.705zM256 117.855c-76.226 0-138.149 61.923-138.149 138.149S179.774 394.146 256 394.146s138.149-61.917 138.149-138.142c0-76.226-61.923-138.149-138.149-138.149m-126.553 4.523-16.524 19.067 28.81 25.636 8.057-9.318-11.018-9.75 8.049-8.687-6.994-6.355-8.049 8.899-4.024-3.812 8.687-9.537zm123.883.804v109.637h-42.977V131.211c13.444-4.921 27.903-7.732 42.977-8.029m5.314 0c50.587.988 94.245 30.278 115.813 72.684a39 39 0 0 0-.849-1.096c-5.285-6.565-11.942-10.918-17.613-14.565a2.663 2.663 0 0 0-3.593.684c-1.32 1.828-3.812 3.347-7.06 3.347h-24.473c-1.229 0-2.395.335-3.402 1.063-1.005.728-1.899 2.031-1.899 3.573v2.79c-.012.016-.034.058-.139.139-.24.184-.711.379-1.235.379h-21.088l.02-1.76v-.034c0-3.21-1.637-6.127-4.164-7.969l-.04-.033-.033-.02-9.218-6.25-.013-.013-.013-.006c-1.468-.969-3.108-1.428-4.656-1.395a7 7 0 0 0-1.508.199c-1.944.477-3.527 1.706-4.549 3.275-2.045 3.139-1.576 8.1 2.357 10.912l4.324 3.307.033.027.033.02c.91.651 1.415 1.437 1.415 1.653l-.107 7.007v.04c0 .086-.012.107-.019.14-.122-.001-.354-.028-.837-.186-1.022-.335-1.798-.768-3.002-1.222-1.204-.455-2.751-.817-4.742-.817-3.505 0-6.385 1.581-8.189 3.686a11.4 11.4 0 0 0-1.554 2.344zm-53.604 10.107v104.843h48.29v30.948h-48.29v109.612a132.8 132.8 0 0 1-30.942-18.112v-91.5h-50.31a134.5 134.5 0 0 1 .558-30.949h49.751v-86.723a132.8 132.8 0 0 1 30.943-18.119m90.052 20.423a3.933 3.933 0 0 0-3.932 3.932 3.933 3.933 0 0 0 3.932 3.932 3.933 3.933 0 0 0 0-7.864m10.015 0a3.934 3.934 0 0 0-3.932 3.932 3.934 3.934 0 0 0 3.932 3.932 3.933 3.933 0 0 0 3.932-3.932 3.933 3.933 0 0 0-3.932-3.932m10.009 0a3.933 3.933 0 0 0-3.932 3.932 3.933 3.933 0 0 0 3.932 3.932 3.933 3.933 0 0 0 0-7.864m10.008 0a3.933 3.933 0 0 0 0 7.864 3.933 3.933 0 0 0 0-7.864m10.016 0a3.933 3.933 0 0 0-3.932 3.932 3.933 3.933 0 0 0 3.932 3.932 3.934 3.934 0 0 0 3.932-3.932 3.933 3.933 0 0 0-3.932-3.932m-166.356 2.092v77.015H125.17c5.377-30.531 21.188-57.476 43.614-77.015m123.485 8.183v6.375h45.694v-6.375zm0 8.58v6.376h45.694v-6.376zm127.224.027-36.017 14.617 10.168 23.731 9.531-4.025-5.293-12.081 4.45-2.119 5.087 11.656 8.68-3.606-4.868-11.224 4.238-1.906 5.08 12.075 8.9-3.6zm-329.032 4.45-5.08 11.224 35.166 16.318 11.231-22.887-8.687-4.449-6.781 11.868zm184.68 2.955c.418-.024.908.085 1.574.525l9.192 6.236c1.146.835 1.906 2.38 1.906 3.626l-.106 8.614v.034c0 3.392 1.716 6.283 3.932 8.302 1.306 1.19 2.802 2.129 4.403 2.703-1.601.574-3.097 1.513-4.403 2.703-2.216 2.018-3.932 4.91-3.932 8.302v.033l.106 8.648c0 1.246-.84 2.811-1.986 3.646l-9.138 6.196c-.888.586-1.431.578-1.946.452s-1.02-.491-1.362-1.016c-.684-1.05-.981-2.272.997-3.686l.033-.026.033-.027 4.396-3.354c1.487-1.064 3.567-2.852 3.567-5.924v-.04l-.106-7.047c0-1.503-.541-3.201-2.059-4.35-1.519-1.15-3.689-1.292-5.765-.612-1.482.487-2.452 1.009-3.228 1.302s-1.433.472-2.863.472c-2.002 0-3.231-.753-4.157-1.834s-1.402-2.585-1.402-3.573v-.531c0-.989.476-2.493 1.402-3.573s2.156-1.834 4.157-1.834c1.429 0 2.087.178 2.863.472.776.293 1.746.815 3.228 1.301 2.076.681 4.246.539 5.765-.611s2.059-2.887 2.059-4.39l.106-7.006v-.041c0-3.072-2.146-4.906-3.633-5.97l-4.33-3.307-.033-.027-.033-.026c-1.978-1.415-1.681-2.637-.997-3.687.342-.525.848-.89 1.362-1.016.128-.031.258-.051.398-.059m79.844 5.904c5.084 3.324 10.358 7.076 14.485 12.201 4.63 5.752 7.909 13.152 7.909 24.062 0 20.496-19.141 36.959-37.551 36.959h-44.491c-1.264 0-2.558.579-3.34 1.474-.783.896-1.098 1.976-1.09 3.009s.341 2.089 1.116 2.969 2.048 1.468 3.314 1.468h43.436c15.616 0 23.942 10.051 23.942 21.917 0 11.564-8.648 22.435-23.836 22.435h-44.757c-1.084 0-2.237.491-2.949 1.282a3.92 3.92 0 0 0-1.003 2.67 3.93 3.93 0 0 0 1.01 2.643c.704.779 1.854 1.275 2.942 1.275h33.314c7.171 0 13.27 6.988 13.27 13.662 0 3.384-.962 6.508-3.088 8.78s-5.524 3.918-11.237 3.918h-19.978c-.797 0-1.634.175-2.404.731-.771.556-1.401 1.62-1.368 2.723.032 1.104.668 2.05 1.408 2.577.739.526 1.565.717 2.364.717h13.25c1.869 0 3.251.818 4.344 2.146 1.091 1.327 1.727 3.188 1.727 4.675 0 1.852-.685 3.564-1.893 4.636-.784.695-1.868 1.178-3.354 1.295.073-.765.085-1.632-.425-2.67-.606-1.232-2.296-2.212-3.732-2.212h-7.951c-2.769 0-5.825-1.043-8.082-3.015-2.258-1.971-3.806-4.764-3.806-8.786 0-3.699 1.546-6.336 3.739-8.23s5.107-2.882 7.253-2.882h19.539c.882 0 1.741-.152 2.564-.651.822-.499 1.668-1.55 1.667-2.856-.002-1.307-.853-2.358-1.674-2.856-.822-.498-1.675-.644-2.557-.644h-30.611c-11.778 0-18.336-8.335-18.336-17.321 0-8.017 6.866-17.521 17.274-17.521h45.554c1.24 0 2.516-.578 3.274-1.461.759-.883 1.056-1.933 1.049-2.935s-.318-2.034-1.069-2.902c-.751-.87-2.012-1.455-3.254-1.455h-46.398c-12.97 0-23.231-9.618-23.231-24.142 0-12.131 9.926-24.573 24.606-24.573h42.054c2.293 0 4.35-1.032 5.612-2.537 1.261-1.505 1.823-3.36 1.833-5.187s-.535-3.698-1.8-5.214-3.337-2.544-5.645-2.544h-44.87l-.033-2.517c0-1.554.845-3.117 2.199-4.35 1.354-1.234 3.175-1.94 4.29-1.94h25.145c.973 0 1.936-.225 2.882-.876.947-.652 1.826-2.058 1.826-3.812 0-1.808-.538-2.722-1.826-3.812-.946-.652-1.909-.877-2.882-.877H299.51c-1.115 0-2.936-.706-4.29-1.94s-2.199-2.822-2.199-4.377l.02-1.541h30.69c1.699 0 3.25-.544 4.471-1.481 1.22-.936 2.218-2.372 2.218-4.184v-2.278h14.923c3.87.002 7.233-1.441 9.642-3.645m27.077 28.147c4.386 13.187 6.761 27.295 6.761 41.954 0 46.401-23.796 87.242-59.854 110.992 1.408-2.003 2.066-4.417 2.066-6.801 0-2.84-1.019-5.72-2.935-8.05-.076-.092-.167-.175-.246-.265 6.043-.292 10.644-2.337 13.641-5.54 3.24-3.461 4.523-8.009 4.523-12.413 0-6.505-3.642-12.765-9.158-16.218h2.019c17.799 0 29.149-13.446 29.149-27.748 0-12.126-7.887-22.989-21.007-26.227 18.837-3.539 35.672-20.489 35.672-41.569a51 51 0 0 0-.631-8.115m-123.418.943c.406.817.921 1.607 1.554 2.344 1.803 2.105 4.684 3.687 8.188 3.687 1.991 0 3.539-.363 4.743-.817 1.203-.455 1.979-.887 3.001-1.222.484-.158.716-.185.837-.186.008.033.02.057.02.14v.04l.107 7.046c0 .217-.505.964-1.415 1.614l-.033.021-.033.026-4.39 3.361c-3.933 2.811-4.336 7.72-2.291 10.858a7.68 7.68 0 0 0 3.706 3.009c-4.256 5.328-6.688 11.985-6.688 18.676 0 14.757 9.57 25.945 22.262 28.75-9.506 3.249-15.461 12.745-15.461 21.665 0 11.696 9.263 22.634 23.65 22.634h1.043c-.233.182-.471.355-.697.551-3.188 2.752-5.579 6.997-5.579 12.254 0 5.462 2.31 9.903 5.619 12.791s7.523 4.324 11.582 4.324h6.655c-.138.485-.292.936-.292.936a2.658 2.658 0 0 0 1.913 3.68c1.901.376 3.699.402 5.327.126-18.723 10.734-40.308 17.044-63.327 17.493zm-143.178 4.629L74.15 233.183l-1.481 12.287 39.198 21.186-.213-14.192-5.924-2.743.89-14.591 6.94-1.734zm303.815 1.275c-13.83 0-20.761 11.332-20.761 22.667s8.201 22.674 20.761 22.674c12.555 0 20.974-10.28 20.974-22.674-.001-12.182-7.358-22.667-20.974-22.667m-126.168 7.95h44.81c.908 0 1.241.247 1.567.638.327.391.569 1.064.565 1.78-.004.715-.255 1.398-.591 1.799-.336.402-.672.638-1.541.638H295.87c-1.281 0-2.532.082-3.752.233a9.5 9.5 0 0 0 1.009-4.244v-.034zm126.433 4.337c6.096 0 9.65 5.692 9.65 10.381 0 4.582-3.686 10.38-9.65 10.38-5.967 0-9.437-5.031-9.437-10.38s3.342-10.381 9.437-10.381m-322.223 4.27-.505 8.13-11.224-5.201zm27.089 36.94h44.372v81.789c-23.593-20.548-39.867-49.291-44.372-81.789m85.941 0h42.977v114.399c-15.074-.296-29.533-3.11-42.977-8.029z"></path><path fill="#9D0D16" d="M275.14 179.999c.419-.024.909.085 1.575.525l9.191 6.236c1.146.835 1.906 2.38 1.906 3.626l-.106 8.614v.034c0 3.392 1.716 6.283 3.932 8.301 1.306 1.191 2.802 2.129 4.404 2.704-1.601.573-3.098 1.513-4.404 2.703-2.216 2.018-3.932 4.909-3.932 8.302v.033l.106 8.648c0 1.245-.84 2.81-1.985 3.646l-9.139 6.196c-.887.586-1.431.578-1.945.452-.515-.126-1.02-.491-1.362-1.016-.684-1.05-.981-2.272.997-3.686l.033-.026.032-.027 4.397-3.354c1.487-1.064 3.566-2.852 3.566-5.924v-.04l-.106-7.047c0-1.504-.54-3.201-2.059-4.35-1.518-1.15-3.688-1.292-5.764-.612-1.483.486-2.452 1.009-3.228 1.302s-1.434.471-2.863.471c-2.002 0-3.232-.753-4.157-1.833-.926-1.08-1.402-2.585-1.402-3.573v-.532c0-.988.476-2.492 1.402-3.573s2.155-1.833 4.157-1.833c1.429 0 2.086.178 2.863.472.776.293 1.745.815 3.228 1.301 2.076.681 4.246.539 5.764-.611 1.519-1.15 2.059-2.887 2.059-4.39l.106-7.007v-.04c0-3.072-2.146-4.906-3.632-5.97l-4.331-3.308-.032-.026-.033-.027c-1.978-1.414-1.681-2.636-.997-3.686.341-.525.847-.89 1.362-1.016q.19-.047.397-.059"></path><path fill="#157031" d="M354.985 185.903c5.084 3.324 10.358 7.076 14.485 12.201 4.63 5.752 7.909 13.152 7.909 24.061 0 20.497-19.141 36.96-37.551 36.96h-44.491c-1.264 0-2.558.579-3.34 1.474-.783.895-1.098 1.976-1.09 3.009s.341 2.089 1.116 2.969 2.048 1.468 3.314 1.468h43.436c15.616 0 23.942 10.051 23.942 21.917 0 11.563-8.648 22.435-23.836 22.435h-44.757c-1.084 0-2.237.491-2.949 1.282a3.92 3.92 0 0 0-1.003 2.67 3.93 3.93 0 0 0 1.01 2.643c.704.779 1.854 1.275 2.942 1.275h33.314c7.171 0 13.27 6.988 13.27 13.662 0 3.384-.962 6.508-3.088 8.78s-5.524 3.918-11.237 3.918h-19.978c-.797 0-1.634.175-2.404.731-.771.556-1.401 1.62-1.368 2.723.032 1.104.668 2.05 1.408 2.577.739.526 1.565.717 2.364.717h13.25c1.869 0 3.251.818 4.344 2.146 1.091 1.327 1.727 3.187 1.727 4.675 0 1.852-.685 3.564-1.893 4.636-.784.695-1.868 1.178-3.354 1.295.073-.765.085-1.633-.425-2.67-.606-1.232-2.296-2.212-3.733-2.212h-7.95c-2.769 0-5.825-1.044-8.082-3.015s-3.806-4.764-3.806-8.786c0-3.699 1.546-6.336 3.739-8.23s5.107-2.882 7.253-2.882h19.539c.882 0 1.741-.152 2.564-.651.822-.499 1.668-1.55 1.667-2.856-.002-1.307-.853-2.358-1.674-2.856-.822-.498-1.675-.644-2.557-.644h-30.611c-11.778 0-18.336-8.335-18.336-17.321 0-8.017 6.866-17.521 17.274-17.521h45.554c1.24 0 2.515-.578 3.274-1.461s1.056-1.933 1.049-2.935-.318-2.034-1.069-2.902c-.751-.87-2.012-1.455-3.254-1.455h-46.398c-12.97 0-23.231-9.618-23.231-24.142 0-12.131 9.926-24.573 24.606-24.573h42.054c2.293 0 4.35-1.032 5.612-2.537 1.261-1.505 1.823-3.361 1.833-5.187s-.535-3.698-1.8-5.214-3.337-2.544-5.645-2.544h-44.87l-.033-2.517c0-1.554.844-3.117 2.199-4.35 1.354-1.234 3.175-1.94 4.29-1.94h25.145c.973 0 1.936-.225 2.882-.876.947-.652 1.826-2.058 1.826-3.812 0-1.808-.538-2.722-1.826-3.812-.946-.652-1.909-.877-2.882-.877H299.51c-1.115 0-2.936-.706-4.29-1.94s-2.199-2.823-2.199-4.377l.02-1.541h30.69c1.699 0 3.25-.545 4.471-1.481 1.22-.936 2.218-2.372 2.218-4.184v-2.278h14.923c3.87.002 7.233-1.442 9.642-3.645"></path></svg>