<svg xmlns="http://www.w3.org/2000/svg" width="96" height="96" fill="none" viewBox="0 0 512 512"><path fill="#C00" d="M337.645 135.491c-8.089 36.38-11.42 53.263-18.082 79.419-6.423 25.204-11.42 48.744-19.984 60.158-8.565 11.651-20.223 14.029-28.074 14.98-4.045.475-7.138.713-15.941.713-8.802 0-11.895-.238-15.94-.713-7.851-.951-19.509-3.329-28.074-14.98-8.565-11.414-13.561-34.954-19.747-60.158-6.661-26.394-9.992-43.039-18.081-79.419 0 0-8.089.238-11.658.476-4.996.238-8.803.713-12.847 1.189 0 0 4.758 74.9 6.899 106.763 2.142 33.289 6.186 89.643 9.755 132.205 0 0 6.899 1.189 18.319 1.664 11.896.714 17.368.714 17.368.714 4.996-18.785 10.944-44.703 17.843-55.878 5.71-9.036 14.275-9.987 19.272-10.7 7.613-.952 14.274-1.189 17.129-1.189 3.093 0 9.517 0 17.13 1.189 4.996.713 13.561 1.664 19.271 10.7 6.9 11.175 13.086 37.093 17.844 55.878 0 0 5.234 0 17.13-.714 11.419-.713 18.319-1.664 18.319-1.664 3.569-42.562 7.613-98.678 9.754-132.205 2.142-31.625 6.9-106.763 6.9-106.763-4.045-.476-8.089-.951-12.847-1.189-3.569-.238-11.658-.476-11.658-.476"></path><path fill="#C00" d="M432.097 179.718c-4.759-47.556-36.639-57.542-64.475-62.298-14.037-2.378-39.018-4.28-54.958-4.993-14.037-.951-46.869-1.427-56.862-1.427-9.992 0-42.824.476-56.861 1.427-15.94.713-40.921 2.615-54.958 4.993-27.836 4.756-59.717 14.742-64.475 62.298-1.428 13.078-1.665 29.96-1.428 48.032.476 30.198 3.093 50.409 4.52 64.676.952 9.749 4.997 38.758 10.231 53.738 7.138 20.687 13.561 26.631 21.174 32.813 13.799 11.176 36.639 14.743 41.397 15.694 25.695 4.518 77.561 5.469 100.638 5.469 22.84 0 74.943-.713 100.638-5.469 4.758-.951 27.598-4.28 41.397-15.694 7.613-6.182 14.037-12.126 21.174-32.813 5.234-14.98 9.279-44.227 10.231-53.738 1.427-14.029 4.044-34.478 4.52-64.676-.238-18.309-.714-35.192-1.903-48.032m-17.606 79.894c-2.855 38.045-6.186 60.872-10.944 77.279-4.283 14.504-9.517 24.015-17.13 30.911-12.847 11.651-30.453 14.029-40.921 15.693-22.364 3.329-60.192 4.518-89.694 4.518-29.739 0-67.329-1.189-89.693-4.518-10.469-1.664-28.074-4.042-40.922-15.693-7.613-6.896-12.847-16.645-17.129-30.911-4.759-16.407-8.327-39.234-10.945-77.279-1.665-22.827-1.427-59.92 1.19-79.894 3.569-29.96 18.319-44.94 49.962-50.409 14.751-2.616 34.736-4.518 53.531-5.469 15.226-.951 39.969-1.427 54.006-1.427 13.799-.237 38.78.476 53.769 1.427 18.795.951 38.78 2.853 53.531 5.469 31.642 5.707 46.393 20.687 50.199 50.409 2.618 19.736 2.855 56.83 1.19 79.894"></path></svg>